<?xml version="1.0" encoding="utf-8"?>
<!-- Generator: Adobe Illustrator 24.0.0, SVG Export Plug-In . SVG Version: 6.00 Build 0)  -->
<svg version="1.1" id="Layer_1" xmlns="http://www.w3.org/2000/svg" xmlns:xlink="http://www.w3.org/1999/xlink" x="0px" y="0px"
	 viewBox="0 0 608.5 230.7" style="enable-background:new 0 0 608.5 230.7;" xml:space="preserve">
<style type="text/css">
	.st0{fill:#FFE300;}
	.st1{display:none;fill:#B89D30;}
	.st2{display:none;fill:none;stroke:#B89D30;stroke-miterlimit:10;}
</style>
<rect width="608.5" height="230.7"/>
<g id="royal_crown_1_">
	<polygon class="st0" points="521.5,61.9 518.7,61.9 518.7,64.7 521.5,64.7 521.5,67.7 524.1,67.7 524.1,64.8 526.8,64.8 
		526.9,61.9 524.3,61.9 524.3,59.4 521.5,59.4 	"/>
	<path class="st0" d="M516.6,68.5l-0.9,2.4c0,0,2.1,2,7,1.9c4.9-0.1,7.2-1.7,7.2-1.7l-1.3-2.5c0-0.4-1,1.3-6,1.5
		C518.3,70.1,516.9,68.2,516.6,68.5z"/>
	<path class="st0" d="M504.8,98.6c0,0,11.9-4.5,21.8-3.4c9.7,1,13.4,3.5,13.4,3.7c0,0,0.4,1.1,0,1.8c-0.4,0.7-1.9,0.6-1.9,0.6
		s-1.4,0.2,0.2,1.3c1.6,1.1,5.3,4.5,5.3,4.5s-5.7,3.8-6.8,3.9c-1.1,0.2-5.3-3.3-7.9-7.4c0,0-6.8,0.9-12.2-0.1
		c-0.4,0.7-7,7.8-8.5,7.6c0,0-6.1-3.4-7-4.5c0,0,5.2-4.1,5.7-4.6c0.5-0.5,1-1-0.6-1C504.5,100.5,504.6,99.9,504.8,98.6z
		 M505.8,106.6c0.5,0.3,2.7,1.1,2.7,1.1c3-0.8,8-9.9,8-9.9l-2.3,0.4C512.2,100.8,505.4,106.2,505.8,106.6z M536.6,107.9
		c1.5-0.2,3-0.8,2.4-1.2c-0.8-0.1-7.4-7.7-8-8c-0.6-0.3-2.7-0.8-2.7-0.8C528.1,98.8,535.1,108.1,536.6,107.9z M518.7,100.7
		c1.7,0.8,7.9,0.1,7.9,0.1l-1.4-2.9l-4.9,0L518.7,100.7z M507.3,78.9c-4,0.7-0.8,4.6-0.8,4.6s2.8,2.7,3.7,5.5c0.8,2.8,1.2,2,1.2,2
		c1.3-0.5,7.6-1.5,7.6-1.5c0.7-4.3-3.2-16.4-3.2-16.4l3.5,1.4c2.4,8.3,2.6,14.9,2.6,14.9l1.6,0c0.5-7.7,2.9-15.2,2.9-15.2l3.6-0.8
		c-3.3,5.2-3.7,16.3-3.7,16.3c2-0.4,8.1,2.1,8.2,1.2c0.1-0.9,3.2-5.6,4.9-8.3c1.1-2.3,0.7-3.5-3.2-3.7c-3.9-0.2-7.2,1.2-7.2,1.2
		c-0.1-3.4,4.4-9.7,12.1-8c7.7,1.7,9.2,10.8,5.1,14.9c-4.1,4.2-5.6,10.1-5.6,10.1s-7.4-5.3-18.3-4.8c-11,0.5-17.6,4.5-17.6,4.5
		c0-2.8-3.3-7.3-5.6-10.8c-1.7-3.5-1.5-5.3-1.6-5.6c-0.1-0.3,0.2-8.3,9.1-8.7c9-0.3,10.2,8.1,10.2,8.1S511.2,78.3,507.3,78.9z
		 M505.9,92.9l2.3-1c0,0-1.9-4.7-4.2-6.8c-2.3-2.1-4.2-9.6,6.4-9.3c0,0-5.6-3-9.1,1.3c-3.6,4.4,1.1,9.2,1.1,9.2
		S506.1,91.4,505.9,92.9z M540.6,77.1c4.2,1.8,1.3,7.2,1,7.4c-0.3,0.3-4.8,7.3-4.8,7.3l2.1,1.3c0.3-1.7,5.9-9.5,5.9-9.5
		s1.7-4.7-2.1-7.6c-3.7-2.9-8.9,0.2-8.9,0.2S536.5,75.3,540.6,77.1z"/>
</g>
<g>
	<polygon id="T_1_" class="st0" points="59.1,85.2 58.9,102.6 85.3,102.7 84.9,153.7 115.9,153.9 116.3,103 143,103.2 143.2,85.8 	
		"/>
	<path id="y_1_" class="st0" d="M147.4,104l26.8,0.2l12.1,31.1l10.8-30.9l26.3,0.2l-23.7,52c0,0-3.9,12-19.6,14.7l-23.8-0.2
		l0.1-14.2l11.5,0.1C177.3,158.1,143.8,100.3,147.4,104z"/>
	<path id="s_1_" class="st0" d="M265,117.1l24.4,0.2c-4.8-23.2-62.2-19.2-63.7-2.1c0,0-1.8,11.8,8.4,14.8c0,0,7.6,3,20.6,3.9
		c13,0.9,13,7.9,4.2,9.1c-8.8,1.2-11.6-4.9-10.7-6c0.9-1-25.5-0.6-25.5-0.6s-0.1,15.4,22.8,17.2c45.4,5,59.7-19.7,34.7-29.1
		c-7.4-3.8-37.8-3.8-27.6-11.1C261.7,110.2,265,117.1,265,117.1z"/>
	<path id="e_1_" class="st0" d="M459.4,142.5c-9.5,0.4-12.3-6-11.7-9.6l49.6,0.4c0.8-37.4-54.5-35.4-67.5-22.2
		c0,0-15.4,12.1-3.6,32.8c11.7,15.3,63.3,15.1,68.6-5.8l-26.1-0.2C468.7,137.9,468.9,142.1,459.4,142.5z M459.2,115.1
		c9.1,0.1,12.1,8.3,12.1,8.3l-24.4-0.2C447,123.2,450.1,115,459.2,115.1z"/>
	<path id="k_1_" class="st0" d="M300.5,154.1l27.8,0.2l0.1-14.1c3.9-8.6,15.9,13.7,18,14.2l33.7,0.2L352,124.8l23.9-20.3l-31.4-0.2
		l-16.5,15.1l0.5-33.1L301,86.1L300.5,154.1z"/>
	<path id="i_2_" class="st0" d="M410.9,94.1l0,12l-22.1,0l0-12L410.9,94.1z M388.8,153.4l22.1,0l0-42.6l-22.1,0L388.8,153.4z"/>
</g>
<path id="i_1_" class="st1" d="M81.3,0l0,12l-22.1,0l0-12L81.3,0z M59.2,59.3l22.1,0l0-42.6l-22.1,0L59.2,59.3z"/>
<path id="i_3_" class="st1" d="M0,149.1l12,0l0,22.1l-12,0L0,149.1z M59.3,171.1l0-22.1l-42.6,0l0,22.1L59.3,171.1z"/>
<path id="i_4_" class="st1" d="M526.9,230.7l0-12l22.1,0l0,12L526.9,230.7z M549,171.5l-22.1,0l0,42.6l22.1,0L549,171.5z"/>
<path id="i_5_" class="st1" d="M608.5,81.8l-12,0l0-22.1l12,0L608.5,81.8z M549.2,59.7l0,22.1l42.6,0l0-22.1L549.2,59.7z"/>
<rect x="59.1" y="59.4" class="st2" width="489.1" height="111.6"/>
</svg>
